<svg xmlns="http://www.w3.org/2000/svg" viewBox="0 0 926.56 131.61"><defs><style>.cls-1{fill:#000;}</style></defs><title>Resurs 1</title><g id="Lager_2" data-name="Lager 2"><g id="Lager_1-2" data-name="Lager 1"><path class="cls-1" d="M235.83,118.87l-4.05,3.42q-1.59-2-10.55-13.65t-24-31.76l.07-.64a38.79,38.79,0,0,0,7.4-3.21,31.32,31.32,0,0,0,7-5.56,21.11,21.11,0,0,0,4.13-6.31A23.3,23.3,0,0,0,217.44,52,20.68,20.68,0,0,0,206.3,33a28.44,28.44,0,0,0-8.91-2.78,71.07,71.07,0,0,0-10.7-.78c-1.79,0-3.8,0-6.05.11s-3.62.1-4.13.1q-.06,13.26-.1,26.24t0,17.25q0,9.77.06,26.52t.07,21H171q0-4.28.07-16.57t.07-30.62q0-3.57-.07-13.08T171,25.27q.69,0,6.36-.15c3.79-.09,7.3-.14,10.56-.14a72.26,72.26,0,0,1,11.21.89,36.41,36.41,0,0,1,10,3,23.76,23.76,0,0,1,9.93,8.88,24.24,24.24,0,0,1,3.89,13.43q0,10.56-5.47,17a34.24,34.24,0,0,1-13.11,9.69v.36q8.44,11.47,19.41,25.49T235.83,118.87Z" transform="translate(0 -1.04)"/><path class="cls-1" d="M299.57,120.51q-3.51,0-13.76,0l-13.62,0-14.16,0q-7.57,0-11.28,0,0-2.64.06-13.11t.07-33.55q0-9-.07-21.87t-.06-26.5q4.6,0,11.28,0t13.48,0l14.58,0q9.21,0,12.58,0v4.63l-13.85,0q-10.29,0-13.73,0H252.25q0,7-.07,17.1T252.11,69l10.21,0c4.11,0,7,0,8.57,0,3.89,0,8.93,0,15.09,0l12.69,0v4.63l-12.89,0-14.89,0-8.53,0c-4.17,0-7.59,0-10.25,0q0,5.55.07,21.22t.07,21.09h23q5.43,0,13.27,0l11,0Z" transform="translate(0 -1.04)"/><path class="cls-1" d="M373.31,117.3c-.05.38-.13,1-.24,1.78s-.22,1.76-.31,2.85h-2.55a82.56,82.56,0,0,1-28-4.38,50.36,50.36,0,0,1-20.05-12.71A43.25,43.25,0,0,1,313.57,91a49.56,49.56,0,0,1-3.2-18.38,44.72,44.72,0,0,1,11.35-30.28q7.42-8.26,19.91-13.1a73.07,73.07,0,0,1,26.66-4.85h2.95c0,.48,0,1.2.07,2.17s.09,1.8.14,2.46h-2.2a68.38,68.38,0,0,0-19.57,2.6,63.57,63.57,0,0,0-15.17,6.59,40.22,40.22,0,0,0-13.48,14q-5.16,8.81-5.15,20.62,0,12.25,4.91,20.91a39.06,39.06,0,0,0,12.35,13.57,54.19,54.19,0,0,0,17.74,7.87,84.26,84.26,0,0,0,19.4,2.17h1.24C372.07,117.37,372.67,117.35,373.31,117.3Z" transform="translate(0 -1.04)"/><path class="cls-1" d="M439.55,120.51q-3.51,0-13.76,0l-13.61,0-14.17,0q-7.58,0-11.28,0,0-2.64.07-13.11t.06-33.55q0-9-.06-21.87t-.07-26.5q4.61,0,11.28,0t13.48,0l14.58,0q9.21,0,12.59,0v4.63l-13.86,0-13.72,0H392.23q0,7-.07,17.1T392.09,69l10.22,0q6.15,0,8.56,0,5.85,0,15.1,0l12.69,0v4.63l-12.9,0-14.89,0-8.53,0c-4.17,0-7.59,0-10.25,0q0,5.55.07,21.22t.07,21.09h23q5.43,0,13.28,0l11,0Z" transform="translate(0 -1.04)"/><path class="cls-1" d="M511.57,57a26.63,26.63,0,0,1-6.33,17.84,33.48,33.48,0,0,1-16.5,10.44,58.14,58.14,0,0,1-10.94,2.06c-3.9.39-8.76.57-14.58.57l.13,32.7h-5.5q0-4.28.07-15.85T458,69q0-7.7-.07-18.88t-.07-24.86c1.88-.05,3.67-.08,5.37-.08h4.19a98.94,98.94,0,0,1,19,1.57A35.31,35.31,0,0,1,499.53,32a26.9,26.9,0,0,1,9,10.4A33.13,33.13,0,0,1,511.57,57Zm-5.5,0a28.34,28.34,0,0,0-3.44-14.23,22.47,22.47,0,0,0-10.11-9.25,37.62,37.62,0,0,0-10.73-3.05,95,95,0,0,0-13.9-.93h-4.54q0,1.07-.06,13.27t-.07,18q0,5.26,0,13.52c0,5.5,0,8.58,0,9.25h3.92a85.44,85.44,0,0,0,14.06-1.07,39.37,39.37,0,0,0,11-3.34,25.71,25.71,0,0,0,10.11-8.75A23.47,23.47,0,0,0,506.07,57Z" transform="translate(0 -1.04)"/><path class="cls-1" d="M585,30.25l-9.87,0q-8.85,0-24.25,0,0,14.61-.07,24.68T550.71,78q0,12.54.07,25.47t.07,17.2h-5.5q0-4.28.07-17.45t.07-25.79q0-12.39-.07-22.22t-.07-25q-13.7,0-23.46,0l-10.59,0V25.48q6.6,0,16.1,0t20.22,0q15.61,0,26,0l11.32,0Z" transform="translate(0 -1.04)"/><path class="cls-1" d="M647.36,120.51q-3.51,0-13.76,0l-13.62,0-14.17,0q-7.56,0-11.28,0,0-2.64.07-13.11t.07-33.55q0-9-.07-21.87t-.07-26.5q4.61,0,11.28,0t13.48,0l14.59,0q9.21,0,12.58,0v4.63l-13.86,0q-10.27,0-13.72,0H600q0,7-.06,17.1T599.9,69l10.21,0c4.1,0,7,0,8.56,0q5.85,0,15.1,0l12.69,0v4.63l-12.89,0-14.9,0-8.52,0c-4.18,0-7.59,0-10.25,0q0,5.55.07,21.22T600,116h23.05q5.43,0,13.27,0l11,0Z" transform="translate(0 -1.04)"/><path class="cls-1" d="M730.48,118.87l-4.05,3.42q-1.59-2-10.55-13.65t-24-31.76l.07-.64a39.07,39.07,0,0,0,7.4-3.21,31.06,31.06,0,0,0,7-5.56,20.73,20.73,0,0,0,4.13-6.31A23.11,23.11,0,0,0,712.09,52a20.67,20.67,0,0,0-11.15-19,28.29,28.29,0,0,0-8.9-2.78,71.17,71.17,0,0,0-10.7-.78c-1.79,0-3.81,0-6.05.11s-3.63.1-4.13.1q-.07,13.26-.1,26.24t0,17.25q0,9.77.07,26.52t.07,21h-5.5q0-4.28.07-16.57t.07-30.62q0-3.57-.07-13.08t-.07-35.11q.69,0,6.36-.15T682.58,25a72.26,72.26,0,0,1,11.21.89,36.34,36.34,0,0,1,10,3,23.72,23.72,0,0,1,9.94,8.88,24.24,24.24,0,0,1,3.89,13.43q0,10.56-5.47,17A34.24,34.24,0,0,1,699,77.87v.36q8.44,11.47,19.41,25.49T730.48,118.87Z" transform="translate(0 -1.04)"/><path class="cls-1" d="M747.1,120.65h-5.5q0-4.28.07-15.24t.07-31.49q0-8.11-.07-21.3t-.07-27.35h5.5q0,10.19-.07,23.68T747,71q0,21.66.07,33.52T747.1,120.65Z" transform="translate(0 -1.04)"/><path class="cls-1" d="M843.47,120l-5,2.31q-2.36-5.26-6-14T822.24,84.61h-45q-6.07,14-10.44,24.32t-5.67,13.22L756.46,120q2.26-5.13,17.16-39t24.59-56.4h4q6.67,15.81,22.25,51.67Zm-23.2-39.93q-4.38-10.41-10.2-23.92T799.79,32.44l-.13,0Q794.77,43.72,789,57.26t-9.76,22.79l0,.07H820.3Z" transform="translate(0 -1.04)"/><path class="cls-1" d="M926.56,25.27q0,11.18-.07,25.57t-.07,20.73q0,20.24.07,33.16t.07,13.86l-5,2.49q-20.31-28.56-40.45-56.82T858.26,32.43l-.13.07q0,19.08.1,51.48t.1,36.67h-5.5q0-1.77.07-12.68T853,77.63q0-7.77-.07-21.52T852.83,28l6.52-3.2q3.24,4.56,24.31,34.12t37.4,51.94l.14-.07q0-11-.17-42t-.18-43.53Z" transform="translate(0 -1.04)"/><path class="cls-1" d="M66,11.34A55.46,55.46,0,0,0,41.71,116.77l1.88-33.56s-3.26-1.08-4-1.44C32.69,78.69,27.7,69.68,27.75,58c.05-12.73,10-23.66,19.51-23.71h0c9.55.13,19.37,11.14,19.32,23.87-.05,11.67-5.13,20.63-12.06,23.66l-4,1.44,1.79,37.33a54.35,54.35,0,0,0,30.91-1.12L85.1,86.24a17.86,17.86,0,0,1-10.79-7.55c-3-4.5,2.5-44.26,2.5-44.26l3.45,0L80.1,71.77l3.43,0,.16-37.32h3.75l-.15,37.33,3.41,0,.16-37.33h3.89l-.16,37.33,3.43,0,.15-37.33h2.65s5.15,39.8,2.12,44.28a17.87,17.87,0,0,1-10.73,7.43l-.15.06,1.37,28.61A55.46,55.46,0,0,0,66,11.34Z" transform="translate(0 -1.04)"/><path class="cls-1" d="M35.89,52.41c.21-.81.48-1.58.49-1.59A.72.72,0,0,0,36,50a.66.66,0,0,0-.87.18s-.39.61-.94,1.5a16,16,0,0,0-1.58,3.52,30,30,0,0,0-1.09,5.11,25.05,25.05,0,0,0-.09,3A13.71,13.71,0,0,0,32,66.44c1.07,3.1,1.9,6.11,4.92,9.08a16.91,16.91,0,0,0,2.64,2.16l.25.18.44.28a5,5,0,0,0,1.07.44.63.63,0,0,0,.73-.3.66.66,0,0,0-.21-.77,6.35,6.35,0,0,1-.79-.87,16.62,16.62,0,0,1-1-1.39L39.13,74c-1.47-2.26-2.3-5.41-3.47-8.64A11.45,11.45,0,0,1,35.18,63a22.54,22.54,0,0,1-.12-2.54,34.18,34.18,0,0,1,.22-4.71A18.38,18.38,0,0,1,35.89,52.41Z" transform="translate(0 -1.04)"/><path class="cls-1" d="M66.08,1a65.8,65.8,0,1,0,65.53,66.07A65.87,65.87,0,0,0,66.08,1Zm-.53,126.69a60.9,60.9,0,1,1,61.16-60.64A61,61,0,0,1,65.55,127.73Z" transform="translate(0 -1.04)"/></g></g></svg>
